<?xml version="1.0" encoding="utf-8"?>
<!-- Generator: Adobe Illustrator 17.1.0, SVG Export Plug-In . SVG Version: 6.00 Build 0)  -->
<!DOCTYPE svg PUBLIC "-//W3C//DTD SVG 1.1//EN" "http://www.w3.org/Graphics/SVG/1.1/DTD/svg11.dtd" [
	<!ENTITY ns_flows "http://ns.adobe.com/Flows/1.0/">
	<!ENTITY ns_extend "http://ns.adobe.com/Extensibility/1.0/">
	<!ENTITY ns_ai "http://ns.adobe.com/AdobeIllustrator/10.0/">
	<!ENTITY ns_graphs "http://ns.adobe.com/Graphs/1.0/">
]>
<svg version="1.1" id="delusion_1_" xmlns:x="&ns_extend;" xmlns:i="&ns_ai;" xmlns:graph="&ns_graphs;"
	 xmlns="http://www.w3.org/2000/svg" xmlns:xlink="http://www.w3.org/1999/xlink" xmlns:a="http://ns.adobe.com/AdobeSVGViewerExtensions/3.0/"
	 x="0px" y="0px" viewBox="0 0 50 50" enable-background="new 0 0 50 50" xml:space="preserve">
<g>
	<path fill-rule="evenodd" clip-rule="evenodd" fill="#EEEEEE" d="M25,1C12,1,1,12,1,25c0,13,11,24,24,24c13,0,24-11,24-24
		C49,12,38,1,25,1z M25,48C12.3,48,2,37.7,2,25S12.3,2,25,2s23,10.3,23,23S37.7,48,25,48z"/>
	<path fill-rule="evenodd" clip-rule="evenodd" fill="#EEEEEE" d="M33.1,10.6c-0.2,0.2-0.2,0.5,0,0.7c3,3,4.7,7,4.7,11.2
		c0,4.2-1.7,8.2-4.7,11.2c-2.4,2.4-5.5,3.7-8.9,3.7c-3.4,0-6.5-1.3-8.9-3.7c-1.9-1.9-2.9-4.4-2.9-7.1c0-2.7,1-5.2,2.9-7.1
		c1.5-1.5,3.5-2.3,5.6-2.3c2.1,0,4.1,0.8,5.6,2.3c1.2,1.2,1.8,2.7,1.8,4.4c0,1.7-0.6,3.2-1.8,4.4c-1.9,1.9-5,1.9-6.9,0
		c-0.7-0.7-1.1-1.7-1.1-2.7c0-1,0.4-2,1.1-2.7c0.6-0.6,1.3-0.9,2.1-0.9c0.8,0,1.5,0.3,2.1,0.9c0.4,0.4,0.7,1,0.7,1.6
		c0,0.6-0.2,1.2-0.7,1.6c-0.6,0.6-1.8,0.6-2.4,0c-0.2-0.2-0.5-0.2-0.7,0c-0.2,0.2-0.2,0.5,0,0.7c0.5,0.5,1.2,0.8,1.9,0.8
		c0.7,0,1.4-0.3,1.9-0.8c0.6-0.6,1-1.4,1-2.3c0-0.9-0.3-1.7-1-2.3c-1.5-1.5-4-1.5-5.6,0c-1.9,1.9-1.9,4.9,0,6.8c2.3,2.3,6,2.3,8.3,0
		c1.4-1.4,2.1-3.2,2.1-5.1c0-1.9-0.7-3.7-2.1-5.1c-1.7-1.7-3.9-2.6-6.3-2.6s-4.6,0.9-6.3,2.6c-2.1,2.1-3.2,4.8-3.2,7.8
		c0,2.9,1.1,5.7,3.2,7.8c2.6,2.6,6,4,9.6,4c3.6,0,7-1.4,9.6-4c3.2-3.2,4.9-7.4,4.9-11.9c0-4.5-1.8-8.7-4.9-11.9
		C33.6,10.5,33.2,10.5,33.1,10.6z"/>
</g>
</svg>
