<?xml version="1.0" encoding="utf-8"?>
<!-- Generator: Adobe Illustrator 17.1.0, SVG Export Plug-In . SVG Version: 6.00 Build 0)  -->
<!DOCTYPE svg PUBLIC "-//W3C//DTD SVG 1.1//EN" "http://www.w3.org/Graphics/SVG/1.1/DTD/svg11.dtd" [
	<!ENTITY ns_flows "http://ns.adobe.com/Flows/1.0/">
	<!ENTITY ns_extend "http://ns.adobe.com/Extensibility/1.0/">
	<!ENTITY ns_ai "http://ns.adobe.com/AdobeIllustrator/10.0/">
	<!ENTITY ns_graphs "http://ns.adobe.com/Graphs/1.0/">
]>
<svg version="1.1" id="swear_1_" xmlns:x="&ns_extend;" xmlns:i="&ns_ai;" xmlns:graph="&ns_graphs;"
	 xmlns="http://www.w3.org/2000/svg" xmlns:xlink="http://www.w3.org/1999/xlink" xmlns:a="http://ns.adobe.com/AdobeSVGViewerExtensions/3.0/"
	 x="0px" y="0px" viewBox="0 0 50 50" enable-background="new 0 0 50 50" xml:space="preserve">
<g>
	<path fill-rule="evenodd" clip-rule="evenodd" fill="#EEEEEE" d="M25,1C12,1,1,12,1,25c0,13,11,24,24,24c13,0,24-11,24-24
		C49,12,38,1,25,1z M25,48C12.3,48,2,37.7,2,25S12.3,2,25,2s23,10.3,23,23S37.7,48,25,48z"/>
	<path fill-rule="evenodd" clip-rule="evenodd" fill="#EEEEEE" d="M36,20.5c0-0.3-0.2-0.5-0.5-0.5c-0.3,0-0.5,0.2-0.5,0.5
		c0,0.8-0.7,1.5-1.5,1.5H32V10.5C32,9.7,31.3,9,30.5,9h-11C18.7,9,18,9.7,18,10.5V22h-1.5c-0.8,0-1.5-0.7-1.5-1.5
		c0-0.3-0.2-0.5-0.5-0.5c-0.3,0-0.5,0.2-0.5,0.5c0,1.4,1.1,2.5,2.5,2.5h2h13h2C34.9,23,36,21.9,36,20.5z M19,22V10.5
		c0-0.3,0.2-0.5,0.5-0.5h11c0.3,0,0.5,0.2,0.5,0.5V22H19z"/>
	<path fill-rule="evenodd" clip-rule="evenodd" fill="#EEEEEE" d="M35.6,32.9c-0.3,0-0.5,0.2-0.5,0.5c0,0.3,0.2,0.5,0.5,0.5h0
		c0.3,0,0.5-0.2,0.5-0.5C36.1,33.1,35.9,32.9,35.6,32.9z"/>
	<polygon fill-rule="evenodd" clip-rule="evenodd" fill="#EEEEEE" points="35.2,29.4 35.2,29.4 35.2,29.4 	"/>
	<path fill-rule="evenodd" clip-rule="evenodd" fill="#EEEEEE" d="M35.6,28.9c-0.3,0-0.5,0.3-0.4,0.6c0,0.2,0.3,0.4,0.5,0.4
		c0,0,0.1,0,0.1,0c0.3,0,0.5-0.3,0.4-0.6C36.1,29,35.9,28.8,35.6,28.9z"/>
	<path fill-rule="evenodd" clip-rule="evenodd" fill="#EEEEEE" d="M35.8,30.9c-0.3,0-0.5,0.2-0.5,0.5c0,0.3,0.2,0.5,0.5,0.5h0
		c0.3,0,0.5-0.2,0.5-0.5C36.3,31.1,36,30.9,35.8,30.9z"/>
	<path fill-rule="evenodd" clip-rule="evenodd" fill="#EEEEEE" d="M35.5,35.9c0.3,0,0.5-0.2,0.5-0.5c0-0.3-0.2-0.5-0.5-0.5
		c-0.3,0-0.5,0.2-0.5,0.5C35,35.6,35.3,35.9,35.5,35.9C35.5,35.9,35.5,35.9,35.5,35.9z"/>
	<path fill-rule="evenodd" clip-rule="evenodd" fill="#EEEEEE" d="M37.5,38c-0.3,0-0.5,0.1-0.6,0.4c-0.1,0.3,0.1,0.5,0.4,0.6
		c0,0,0.1,0,0.1,0c0.2,0,0.5-0.2,0.5-0.4C37.9,38.3,37.8,38,37.5,38z"/>
	<path fill-rule="evenodd" clip-rule="evenodd" fill="#EEEEEE" d="M35.2,27.2c-0.2-0.2-0.5-0.2-0.7,0c-0.2,0.2-0.2,0.5,0,0.7
		c0.1,0.1,0.2,0.1,0.3,0.1c0.1,0,0.3-0.1,0.4-0.2C35.4,27.7,35.4,27.4,35.2,27.2z"/>
	<path fill-rule="evenodd" clip-rule="evenodd" fill="#EEEEEE" d="M35.7,36.9c-0.2,0.1-0.4,0.4-0.2,0.7c0.1,0.2,0.3,0.3,0.5,0.3
		c0.1,0,0.1,0,0.2-0.1c0.3-0.1,0.4-0.4,0.2-0.7C36.2,36.8,35.9,36.7,35.7,36.9z"/>
	<circle fill-rule="evenodd" clip-rule="evenodd" fill="#EEEEEE" cx="33" cy="27" r="0.5"/>
	<path fill-rule="evenodd" clip-rule="evenodd" fill="#EEEEEE" d="M29,30c1.7,0,3-1.3,3-3c0-1.7-1.3-3-3-3s-3,1.3-3,3
		C26,28.7,27.3,30,29,30z M29,25c1.1,0,2,0.9,2,2c0,1.1-0.9,2-2,2c-1.1,0-2-0.9-2-2C27,25.9,27.9,25,29,25z"/>
	<path fill-rule="evenodd" clip-rule="evenodd" fill="#EEEEEE" d="M31.9,35.8c-0.3,0.2-0.9,0.4-1.4,0.4c-0.5,0-1.7-0.2-1.7-1.6
		c0,0,0,0,0-0.1c0,0,0-0.2,0-0.2c0-1.3-1-2.3-2.3-2.3c-0.6,0-1.1,0.2-1.5,0.6c-0.4-0.4-0.9-0.6-1.5-0.6c-1.3,0-2.3,1-2.3,2.3
		c0,0.1,0,0.2,0,0.2c0,0,0,0,0,0.1c0,1.6-1.7,1.6-1.8,1.6c-0.5,0-0.9-0.1-1.1-0.3c-0.2-0.2-0.4-0.2-0.6-0.1
		c-0.2,0.1-0.3,0.4-0.2,0.6c0.7,1.6,2.3,2.6,4,2.6c1.5,0,2.8-0.7,3.6-1.9c0.8,1.2,2.1,1.9,3.6,1.9c1.7,0,3.3-1,4-2.6
		c0.1-0.2,0-0.4-0.1-0.6C32.3,35.7,32.1,35.7,31.9,35.8z M28.6,38c-1.4,0-2.6-0.8-3.1-2.1c-0.1-0.2-0.3-0.3-0.5-0.3
		c-0.2,0-0.4,0.1-0.5,0.3C24,37.2,22.8,38,21.4,38c-0.8,0-1.6-0.3-2.2-0.8c1.4,0.1,3-0.8,3-2.6c0-0.1,0-0.2,0-0.3
		c0-0.7,0.6-1.3,1.3-1.3c0.4,0,0.8,0.2,1.1,0.6c0.2,0.3,0.6,0.3,0.8,0c0.2-0.4,0.6-0.6,1.1-0.6c0.7,0,1.3,0.6,1.3,1.3
		c0,0.1,0,0.3,0,0.3c0,1.6,1.1,2.6,2.7,2.6c0.1,0,0.2,0,0.3,0C30.2,37.7,29.4,38,28.6,38z"/>
</g>
</svg>
