<?xml version="1.0" encoding="utf-8"?>
<!-- Generator: Adobe Illustrator 17.1.0, SVG Export Plug-In . SVG Version: 6.00 Build 0)  -->
<!DOCTYPE svg PUBLIC "-//W3C//DTD SVG 1.1//EN" "http://www.w3.org/Graphics/SVG/1.1/DTD/svg11.dtd" [
	<!ENTITY ns_flows "http://ns.adobe.com/Flows/1.0/">
	<!ENTITY ns_extend "http://ns.adobe.com/Extensibility/1.0/">
	<!ENTITY ns_ai "http://ns.adobe.com/AdobeIllustrator/10.0/">
	<!ENTITY ns_graphs "http://ns.adobe.com/Graphs/1.0/">
]>
<svg version="1.1" id="drink_1_" xmlns:x="&ns_extend;" xmlns:i="&ns_ai;" xmlns:graph="&ns_graphs;"
	 xmlns="http://www.w3.org/2000/svg" xmlns:xlink="http://www.w3.org/1999/xlink" xmlns:a="http://ns.adobe.com/AdobeSVGViewerExtensions/3.0/"
	 x="0px" y="0px" viewBox="0 0 50 50" enable-background="new 0 0 50 50" xml:space="preserve">
<g>
	<path fill-rule="evenodd" clip-rule="evenodd" fill="#EEEEEE" d="M25,1C12,1,1,12,1,25c0,13,11,24,24,24c13,0,24-11,24-24
		C49,12,38,1,25,1z M25,48C12.3,48,2,37.7,2,25S12.3,2,25,2s23,10.3,23,23S37.7,48,25,48z"/>
	<path fill-rule="evenodd" clip-rule="evenodd" fill="#EEEEEE" d="M28.2,28.3c3.1-1.4,5.3-5,5.3-8.6c0-4.2-1.4-8.2-1.4-8.4
		C32,11.1,31.8,11,31.6,11H22c-0.3,0-0.5,0.2-0.5,0.5c0,0.3,0.2,0.5,0.5,0.5h9.2c0.3,0.9,1,3.3,1.2,5.9l-2.2-0.8
		c-1.1-0.4-2.6-0.4-3.6,0l-2.9,1c-0.9,0.3-2.1,0.3-3,0l-2.9-1c-0.1,0-0.1,0-0.2-0.1c0.3-2.3,0.9-4.4,1.1-5.1h0.7
		c0.3,0,0.5-0.2,0.5-0.5c0-0.3-0.2-0.5-0.5-0.5h-1.1c-0.2,0-0.4,0.1-0.5,0.3c-0.1,0.2-1.4,4.2-1.4,8.4c0,3.7,2.2,7.2,5.3,8.6
		c1.1,0.5,1.2,1.6,1.2,2.7v6c0,1.9-1.1,3-3,3c-0.3,0-0.5,0.2-0.5,0.5c0,0.3,0.2,0.5,0.5,0.5c2.5,0,4-1.5,4-4v-6
		c0-1.5-0.4-2.9-1.8-3.6c-2.8-1.3-4.7-4.4-4.7-7.7c0-0.5,0-1,0.1-1.6l2.8,1c0.5,0.2,1.2,0.3,1.8,0.3c0.6,0,1.3-0.1,1.8-0.3l2.9-1
		c0.9-0.3,2.1-0.3,3,0l2.6,0.9c0,0.2,0,0.4,0,0.7c0,3.3-1.9,6.4-4.7,7.7C26.4,28.1,26,29.5,26,31v6c0,2.4,1.5,3.9,3.9,4c0,0,0,0,0,0
		H30c0.3,0,0.5-0.2,0.5-0.5c0-0.3-0.2-0.5-0.5-0.5c-1.9,0-3-1.1-3-3v-6C27,29.9,27.2,28.8,28.2,28.3z"/>
</g>
</svg>
