<?xml version="1.0" encoding="utf-8"?>
<!-- Generator: Adobe Illustrator 17.1.0, SVG Export Plug-In . SVG Version: 6.00 Build 0)  -->
<!DOCTYPE svg PUBLIC "-//W3C//DTD SVG 1.1//EN" "http://www.w3.org/Graphics/SVG/1.1/DTD/svg11.dtd" [
	<!ENTITY ns_flows "http://ns.adobe.com/Flows/1.0/">
	<!ENTITY ns_extend "http://ns.adobe.com/Extensibility/1.0/">
	<!ENTITY ns_ai "http://ns.adobe.com/AdobeIllustrator/10.0/">
	<!ENTITY ns_graphs "http://ns.adobe.com/Graphs/1.0/">
]>
<svg version="1.1" xmlns:x="&ns_extend;" xmlns:i="&ns_ai;" xmlns:graph="&ns_graphs;"
	 xmlns="http://www.w3.org/2000/svg" xmlns:xlink="http://www.w3.org/1999/xlink" xmlns:a="http://ns.adobe.com/AdobeSVGViewerExtensions/3.0/"
	 x="0px" y="0px" viewBox="0 0 50 50" enable-background="new 0 0 50 50" xml:space="preserve">
<g id="Path_1_" enable-background="new    ">
	<g id="Path">
		<g>
			<path fill-rule="evenodd" clip-rule="evenodd" fill="#EEEEEE" d="M25,1C12,1,1,12,1,25c0,13,11,24,24,24c13,0,24-11,24-24
				C49,12,38,1,25,1z M25,48C12.3,48,2,37.7,2,25S12.3,2,25,2s23,10.3,23,23S37.7,48,25,48z"/>
		</g>
	</g>
</g>
<g id="night_1_">
	<g id="Composite_Path">
		<g>
			<path fill-rule="evenodd" clip-rule="evenodd" fill="#EEEEEE" d="M37.7,28.5c-0.1-0.1-0.4-0.2-0.6-0.1c-1.6,0.8-3.3,1.1-5.1,1.1
				c-6.6,0-12-5.4-12-12c0-1.8,0.4-3.5,1.1-5.1c0.1-0.2,0.1-0.4-0.1-0.6c-0.1-0.1-0.4-0.2-0.6-0.1c-4.5,2.1-7.5,6.8-7.5,11.8
				c0,7.2,5.8,13,13,13c5,0,9.6-2.9,11.8-7.5C37.9,28.8,37.8,28.6,37.7,28.5z M26,35.5c-6.6,0-12-5.4-12-12c0-4.2,2.2-8,5.7-10.2
				C19.2,14.6,19,16,19,17.5c0,7.2,5.8,13,13,13c1.5,0,2.9-0.2,4.2-0.7C34,33.3,30.2,35.5,26,35.5z"/>
		</g>
	</g>
</g>
</svg>
