<?xml version="1.0" encoding="utf-8"?>
<!-- Generator: Adobe Illustrator 17.1.0, SVG Export Plug-In . SVG Version: 6.00 Build 0)  -->
<!DOCTYPE svg PUBLIC "-//W3C//DTD SVG 1.1//EN" "http://www.w3.org/Graphics/SVG/1.1/DTD/svg11.dtd" [
	<!ENTITY ns_flows "http://ns.adobe.com/Flows/1.0/">
	<!ENTITY ns_extend "http://ns.adobe.com/Extensibility/1.0/">
	<!ENTITY ns_ai "http://ns.adobe.com/AdobeIllustrator/10.0/">
	<!ENTITY ns_graphs "http://ns.adobe.com/Graphs/1.0/">
]>
<svg version="1.1" xmlns:x="&ns_extend;" xmlns:i="&ns_ai;" xmlns:graph="&ns_graphs;"
	 xmlns="http://www.w3.org/2000/svg" xmlns:xlink="http://www.w3.org/1999/xlink" xmlns:a="http://ns.adobe.com/AdobeSVGViewerExtensions/3.0/"
	 x="0px" y="0px" viewBox="0 0 50 50" enable-background="new 0 0 50 50" xml:space="preserve">
<g id="Path_2_" enable-background="new    ">
</g>
<g id="present_1_">
	<g>
		<path fill-rule="evenodd" clip-rule="evenodd" fill="#EEEEEE" d="M25,1C12,1,1,12,1,25c0,13,11,24,24,24c13,0,24-11,24-24
			C49,12,38,1,25,1z M25,48C12.3,48,2,37.7,2,25S12.3,2,25,2s23,10.3,23,23S37.7,48,25,48z"/>
		<path fill-rule="evenodd" clip-rule="evenodd" fill="#EEEEEE" d="M25,24c-4.4,0-8,3.6-8,8c0,4.4,3.6,8,8,8c4.4,0,8-3.6,8-8
			C33,27.6,29.4,24,25,24z M25,39c-3.9,0-7-3.1-7-7c0-3.9,3.1-7,7-7c3.9,0,7,3.1,7,7C32,35.9,28.9,39,25,39z"/>
		<path fill-rule="evenodd" clip-rule="evenodd" fill="#EEEEEE" d="M25.5,26.8c-0.1-0.2-0.3-0.3-0.5-0.3c-0.2,0-0.4,0.1-0.5,0.3
			L23.3,30L20,30.1c-0.2,0-0.4,0.1-0.5,0.3c-0.1,0.2,0,0.4,0.1,0.5l2.5,2.3l-0.7,3c0,0.2,0,0.4,0.2,0.5c0.1,0.1,0.2,0.1,0.3,0.1
			c0.1,0,0.2,0,0.2-0.1l2.8-1.5l2.8,1.5c0.1,0,0.2,0.1,0.2,0.1c0,0,0,0,0,0c0.3,0,0.5-0.2,0.5-0.5c0-0.1,0-0.1,0-0.2l-0.7-2.9
			l2.5-2.3c0.1-0.1,0.2-0.4,0.1-0.5c-0.1-0.2-0.3-0.3-0.5-0.3L26.7,30L25.5,26.8z M26.9,32.8c-0.1,0.1-0.2,0.3-0.1,0.5l0.5,2.2
			l-2.1-1.1c-0.1,0-0.2-0.1-0.2-0.1s-0.2,0-0.2,0.1l-2.1,1.1l0.5-2.2c0-0.2,0-0.4-0.1-0.5l-1.8-1.7l2.4-0.1c0.2,0,0.4-0.1,0.4-0.3
			l0.9-2.3l0.9,2.3c0.1,0.2,0.3,0.3,0.4,0.3l2.4,0.1L26.9,32.8z"/>
		<path fill-rule="evenodd" clip-rule="evenodd" fill="#EEEEEE" d="M31,10.8c-0.1-0.2-0.3-0.3-0.5-0.3H19.7c0,0,0,0-0.1,0
			c0,0-0.1,0-0.1,0c0,0,0,0-0.1,0c0,0-0.1,0-0.1,0c0,0-0.1,0.1-0.1,0.1c0,0,0,0,0,0c0,0,0,0,0,0c0,0,0,0,0,0l-4.2,9
			c-0.1,0.1-0.1,0.3,0,0.4c0.1,0.1,0.2,0.2,0.3,0.3l9.5,3c0,0,0.1,0,0.2,0c0,0,0.1,0,0.2,0l9.5-3c0.1,0,0.2-0.1,0.3-0.3
			c0.1-0.1,0.1-0.3,0-0.4L31,10.8z M16.2,19.7l3.5-7.5l4.4,10L16.2,19.7z M25.3,22.4l-4.8-10.9h9.7l3.6,8.2L25.3,22.4z"/>
	</g>
</g>
</svg>
