<?xml version="1.0" encoding="utf-8"?>
<!-- Generator: Adobe Illustrator 21.1.0, SVG Export Plug-In . SVG Version: 6.00 Build 0)  -->
<svg version="1.1" id="Layer_1" xmlns="http://www.w3.org/2000/svg" xmlns:xlink="http://www.w3.org/1999/xlink" x="0px" y="0px"
	 viewBox="0 0 500 200" style="enable-background:new 0 0 500 200;" xml:space="preserve">
<style type="text/css">
	.st0{fill:#FFFFFF;}
	.st1{fill:#EC2027;}
</style>
<path class="st0" d="M135.8,129.4c0-17.2-4.9-30.3-14.6-39.4c-9.8-9.1-24.6-13.7-44.4-13.7H57.5V49h53.6c3.4,0,5.4-1.4,5.9-4.1
	l5.6-30.7c0-0.2,0.1-0.6,0.3-1.3c0.2-0.7,0.3-1.2,0.3-1.5c0-1.7-1.3-2.6-3.9-2.6h-105c-3.4,0-5.1,1.7-5.1,5.2v166.5
	c0,3.4,1.7,5.2,5.1,5.2h56.2C114.1,185.6,135.8,166.9,135.8,129.4z M57.5,148.2v-37.9h11.5c5.8,0,10.6,1.5,14.4,4.5
	c3.8,3,5.6,7.8,5.6,14.3c0,5.3-1.3,9.5-3.9,12.5c-2.6,3-5.4,4.9-8.5,5.5c-3.1,0.7-6.8,1-11.3,1H57.5z"/>
<path class="st0" d="M434.8,9.6l6.4,103.1c0.2,2.2,0.5,3.7,1,4.3c0.5,0.6,1.9,0.9,4.1,0.9h31.6c2.2,0,3.6-0.3,4.1-0.9
	c0.5-0.6,0.9-2,1-4.3l6.4-101.3V9.9c0-1.5-0.3-2.6-1-3.1C487.7,6.3,486.3,6,484,6h-44.1c-2.2,0-3.6,0.2-4.2,0.6
	C435.1,7.1,434.8,8.1,434.8,9.6z"/>
<path class="st1" d="M408.9,97.2c0-1-0.8-2.3-2.3-3.9l-18.7-19.6l27.7-5.2c3.3-0.5,4.9-1.5,4.9-3.1c0-0.7-0.3-1.7-0.8-3.1l-10-29.1
	c-1-2.7-2.2-4.1-3.6-4.1c-0.7,0-1.9,0.4-3.6,1.3l-25.1,14.2l5.6-29.9c0.2-0.7,0.3-1.5,0.3-2.6c0-2.2-1.7-3.3-5.1-3.3h-30.5
	c-3.4,0-5.1,1.2-5.1,3.6c0,0.2,0,0.5,0.1,1c0.1,0.5,0.1,0.9,0.1,1.3l4.1,29.1l-25.1-13.7c-1.7-0.9-2.9-1.3-3.6-1.3
	c-1.2,0-2.3,1.4-3.3,4.1l-10,29.1c-0.5,1.2-0.8,2.2-0.8,3.1c0,1.5,1.6,2.6,4.9,3.1l28,4.1l-20.3,21.1c-1.7,1.7-2.6,3-2.6,3.9
	c0,1,1,2.2,3.1,3.6l24.9,17.8c1.5,1,2.7,1.5,3.6,1.5c1.2,0,2.4-1.2,3.6-3.6L361.9,90l12.1,26.5c1.2,2.4,2.4,3.6,3.6,3.6
	c0.9,0,2-0.5,3.6-1.5l24.9-17.8C407.9,99.6,408.9,98.4,408.9,97.2z"/>
<path class="st0" d="M196.4,172.2c10.9-11.2,17.5-29.5,19.5-55.1c1.2-13.2,1.8-30.8,1.8-52.8V49.5h22.1v131.7c0,1.7,0.3,2.9,0.9,3.5
	c0.6,0.6,1.8,0.9,3.7,0.9h39.8c1.2,0,2.1-0.2,2.7-0.6c0.6-0.4,0.9-0.9,1-1.4c0.1-0.5,0.1-1.4,0.1-2.6V14c0-3.4-1.7-5.2-5.1-5.2
	H178.7c-3.6,0-5.4,1.7-5.4,5.2v30.7c0,1.2,0,6.1,0.1,14.6c0.1,8.5,0.1,14.3,0,17.4c-0.1,3.1-0.2,8.4-0.4,16
	c-0.2,7.6-0.5,13.3-1,17.1c-0.5,3.9-1.2,8.4-2.1,13.7c-0.9,5.2-1.9,9.4-3.2,12.5c-1.3,3.1-2.9,5.6-4.7,7.5c-3.4,3.6-9.3,6.3-17.7,8
	l-4.6,1c-1.7,0.5-2.6,1.7-2.6,3.6c0,0.2,0.1,0.3,0.3,0.5v0.3l9.8,30.9c0.7,1.5,2.3,2.3,4.9,2.3c5.8,0,13.2-1.5,22.2-4.5
	C183.2,182.5,190.6,178,196.4,172.2z"/>
<path class="st0" d="M433,164.7c0,8.1,2.9,15,8.7,20.9c5.8,5.8,12.7,8.8,20.8,8.8c8,0,15-2.9,20.8-8.8c5.8-5.8,8.7-12.8,8.7-20.9
	c0-8.1-2.9-15-8.7-20.9c-5.8-5.8-12.7-8.8-20.8-8.8c-8,0-15,2.9-20.8,8.8C435.9,149.7,433,156.7,433,164.7z"/>
</svg>
